<svg xmlns="http://www.w3.org/2000/svg" version="1.1" xmlns:xlink="http://www.w3.org/1999/xlink" width="1000" height="1000"><metadata><rdf:RDF xmlns:rdf="http://www.w3.org/1999/02/22-rdf-syntax-ns#" xmlns:dc="http://purl.org/dc/elements/1.1/"><rdf:Description><dc:creator>RealFaviconGenerator</dc:creator><dc:source>https://realfavicongenerator.net</dc:source></rdf:Description></rdf:RDF></metadata><style>
    #light-icon {
      display: inline;
    }
    #dark-icon {
      display: none;
    }

    @media (prefers-color-scheme: dark) {
      #light-icon {
        display: none;
      }
      #dark-icon {
        display: inline;
      }
    }
  </style><g id="light-icon"><svg xmlns="http://www.w3.org/2000/svg" version="1.1" xmlns:xlink="http://www.w3.org/1999/xlink" width="1000" height="1000"><g><g transform="matrix(5.037275841225065,0,0,5.037275841225065,5.684341886080802e-14,5.684341886080802e-14)"><svg xmlns="http://www.w3.org/2000/svg" viewBox="0 0 198.52 198.52" width="198.52" height="198.52"><defs><style>.cls-1{fill:#303030;}</style></defs><g id="Слой_2" data-name="Слой 2"><g id="_1" data-name="1"><path class="cls-1" d="M190.07,94.78V73.91C190.07,40.19,174.31,0,99.26,0S8.45,40.19,8.45,73.91V94.78A31.43,31.43,0,0,0,0,116.15v50.69a31.71,31.71,0,0,0,31.68,31.68H68.2a14.72,14.72,0,0,0,13.72-9.3l12.65-31.61a2.09,2.09,0,0,1,2-1.33H102a2.11,2.11,0,0,1,2,1.32l12.64,31.63a14.74,14.74,0,0,0,13.73,9.29h36.52a31.71,31.71,0,0,0,31.68-31.68V116.15A31.43,31.43,0,0,0,190.07,94.78ZM46.46,158.39a6.34,6.34,0,1,1-12.67,0V124.6a6.34,6.34,0,0,1,12.67,0Zm118.27,0a6.34,6.34,0,0,1-12.68,0V124.6a6.34,6.34,0,0,1,12.68,0Zm12.67-72a31.39,31.39,0,0,0-10.56-1.94H31.68a31.39,31.39,0,0,0-10.56,1.94V73.91C21.12,58,54,46.46,99.26,46.46S177.4,58,177.4,73.91Z"></path></g></g></svg></g></g></svg></g><g id="dark-icon"><svg xmlns="http://www.w3.org/2000/svg" version="1.1" xmlns:xlink="http://www.w3.org/1999/xlink" width="1000" height="1000"><g clip-path="url(#SvgjsClipPath1039)"><rect width="1000" height="1000" fill="#ffffff"></rect><g transform="matrix(2.5186379206125324,0,0,2.5186379206125324,250.00000000000006,250.00000000000006)"><svg xmlns="http://www.w3.org/2000/svg" viewBox="0 0 198.52 198.52" width="198.52" height="198.52"><defs><style>.cls-1{fill:#303030;}</style><clipPath id="SvgjsClipPath1039"><rect width="1000" height="1000" x="0" y="0" rx="0" ry="0"></rect></clipPath></defs><g id="Слой_2" data-name="Слой 2"><g id="_1" data-name="1"><path class="cls-1" d="M190.07,94.78V73.91C190.07,40.19,174.31,0,99.26,0S8.45,40.19,8.45,73.91V94.78A31.43,31.43,0,0,0,0,116.15v50.69a31.71,31.71,0,0,0,31.68,31.68H68.2a14.72,14.72,0,0,0,13.72-9.3l12.65-31.61a2.09,2.09,0,0,1,2-1.33H102a2.11,2.11,0,0,1,2,1.32l12.64,31.63a14.74,14.74,0,0,0,13.73,9.29h36.52a31.71,31.71,0,0,0,31.68-31.68V116.15A31.43,31.43,0,0,0,190.07,94.78ZM46.46,158.39a6.34,6.34,0,1,1-12.67,0V124.6a6.34,6.34,0,0,1,12.67,0Zm118.27,0a6.34,6.34,0,0,1-12.68,0V124.6a6.34,6.34,0,0,1,12.68,0Zm12.67-72a31.39,31.39,0,0,0-10.56-1.94H31.68a31.39,31.39,0,0,0-10.56,1.94V73.91C21.12,58,54,46.46,99.26,46.46S177.4,58,177.4,73.91Z"></path></g></g></svg></g></g></svg></g></svg>